# xmcd
#
# Track frame offsets: 
#        150
#        11187
#        26007
#        46735
#        63585
#        79868
#        95697
#        105778
#        121915
#        134459
#        149704
#
# Disc length: 2214 seconds
#
# Revision: 0
# Processed by: cddbd v1.5.2PL0 Copyright (c) Steve Scherf et al.
# Submitted via: ExactAudioCopy v0.99pb4
#
DISCID=9508a40b
DTITLE=Mary Jean McAdams - Right About Now
DYEAR=2000
DGENRE=Contemporary Christian
TTITLE0=I Like it a Lot
TTITLE1=It's All Because of You
TTITLE2=Let Go of the Ghost
TTITLE3=After Her, Before You
TTITLE4=Teach Me to Love You
TTITLE5=Right About Now
TTITLE6=Every Little Thing
TTITLE7=If Only You Loved Me Too
TTITLE8=I Think it's Time You Think Again
TTITLE9=Love Is Enough
TTITLE10=Another Day
EXTD=
EXTT0=
EXTT1=
EXTT2=
EXTT3=
EXTT4=
EXTT5=
EXTT6=
EXTT7=
EXTT8=
EXTT9=
EXTT10=
PLAYORDER=
